<svg width="35" height="35" viewBox="0 0 35 35" fill="none" xmlns="http://www.w3.org/2000/svg">
<path d="M31.5154 27.4534C33.7407 25.4701 35.0007 22.8265 35.0007 20.0832C35.0007 17.1677 33.6359 14.4411 31.1576 12.4051C28.7455 10.4243 25.5528 9.33325 22.1672 9.33325C18.7816 9.33325 15.5889 10.4243 13.1772 12.4053C10.6988 14.4411 9.33398 17.1677 9.33398 20.0832C9.33398 22.9986 10.6988 25.7253 13.1772 27.7612C15.5889 29.7422 18.7816 30.8332 22.1672 30.8332C22.6183 30.8332 23.0722 30.8133 23.5223 30.7737L24.2913 31.4402C26.9405 33.7358 30.3283 34.9995 33.8337 34.9997H35.0004V32.5164L34.6587 32.1747C33.3108 30.8228 32.2426 29.2185 31.5154 27.4534ZM25.8195 29.6768L24.2765 28.3394L23.762 28.4025C23.2329 28.4672 22.7003 28.4997 22.1672 28.4997C16.3777 28.4997 11.6673 24.724 11.6673 20.0832C11.6673 15.4423 16.3777 11.6666 22.1672 11.6666C27.9567 11.6666 32.6671 15.4422 32.6671 20.0832C32.6671 22.3953 31.5135 24.5539 29.419 26.1613L28.747 26.6769L29.0571 27.5544C29.6924 29.3467 30.6263 31.0186 31.8193 32.4994C29.5977 32.1285 27.5216 31.1518 25.8195 29.6768Z" fill="#AAAAAA"/>
<path d="M3.22179 21.9824C4.31387 20.6 5.17132 19.0475 5.75985 17.387L6.06755 16.5138L5.39621 15.9986C3.42107 14.483 2.33331 12.4488 2.33331 10.2707C2.33331 5.89401 6.78184 2.33331 12.2499 2.33331C16.2725 2.33331 19.7432 4.26048 21.2971 7.0218C21.5856 7.0078 21.8754 6.99993 22.1664 6.99993C22.7511 6.99993 23.3304 7.02829 23.9043 7.08502C23.3039 5.52936 22.261 4.10925 20.8273 2.93166C18.5259 1.04117 15.48 0 12.2499 0C9.0197 0 5.97385 1.04117 3.67234 2.93166C1.30417 4.87698 0 7.48336 0 10.2707C0 12.8811 1.19232 15.3963 3.29944 17.2884C2.6118 18.9432 1.60703 20.4475 0.341757 21.7165L0 22.0582V24.4997H1.16665C3.32402 24.4995 5.45172 23.9971 7.38135 23.0323C7.16976 22.2303 7.04578 21.4078 7.01159 20.5791C5.8404 21.2655 4.55758 21.7405 3.22179 21.9824Z" fill="#AAAAAA"/>
</svg>
