<svg width="35" height="35" viewBox="0 0 35 35" fill="none" xmlns="http://www.w3.org/2000/svg">
<path d="M33.8041 28.0193L27.8917 22.0985L23.3441 20.2169C24.8583 18.0605 25.6695 15.4879 25.6666 12.8517C25.6666 5.76522 19.9096 0 12.8333 0C5.75698 0 0 5.76522 0 12.8517C0 19.9381 5.75698 25.7034 12.8333 25.7034C15.4887 25.7064 18.0788 24.88 20.243 23.3392L22.117 27.8811L28.0291 33.8022C28.4083 34.1819 28.8584 34.4832 29.3538 34.6887C29.8492 34.8942 30.3802 35 30.9165 35C31.4527 35 31.9837 34.8943 32.4791 34.6888C32.9746 34.4833 33.4247 34.1821 33.8039 33.8024C34.1831 33.4227 34.4839 32.9719 34.6891 32.4758C34.8943 31.9796 35 31.4479 35 30.9109C35 30.3739 34.8944 29.8421 34.6892 29.346C34.484 28.8498 34.1833 28.399 33.8041 28.0193ZM2.33333 12.8517C2.33333 7.05382 7.04373 2.33667 12.8333 2.33667C18.6229 2.33667 23.3333 7.05382 23.3333 12.8517C23.3333 18.6495 18.6229 23.3667 12.8333 23.3667C7.04373 23.3667 2.33333 18.6495 2.33333 12.8517ZM32.1541 32.1499C31.8256 32.4781 31.3806 32.6624 30.9166 32.6624C30.4526 32.6624 30.0076 32.4781 29.6791 32.1499L24.0958 26.5586L22.3535 22.3354L26.5708 24.0802L32.1542 29.6715C32.4819 30.0005 32.6659 30.4462 32.6658 30.9108C32.6658 31.3754 32.4818 31.821 32.1541 32.1499Z" fill="#AAAAAA"/>
</svg>
